<svg xmlns:dc="http://purl.org/dc/elements/1.1/" xmlns:cc="http://creativecommons.org/ns#" xmlns:rdf="http://www.w3.org/1999/02/22-rdf-syntax-ns#" xmlns:svg="http://www.w3.org/2000/svg" xmlns="http://www.w3.org/2000/svg" viewBox="0 0 4000 2666.6667" height="2666.6667" width="4000" xml:space="preserve" id="svg2" version="1.1"><metadata id="metadata8"><rdf:RDF><cc:Work rdf:about=""><dc:format>image/svg+xml</dc:format><dc:type rdf:resource="http://purl.org/dc/dcmitype/StillImage"/></cc:Work></rdf:RDF></metadata><defs id="defs6"/><g transform="matrix(1.3333333,0,0,-1.3333333,0,2666.6667)" id="g10"><g transform="scale(0.1)" id="g12"><g transform="scale(1.74383)" id="g18"><path id="path20" style="fill:#fbecdb;fill-opacity:1;fill-rule:nonzero;stroke:none" d="m 2059.56,2456.03 9886.64,10.67 3994.3,1.2 c 0,0 217.7,538.3 286.6,1247.78 72.9,750.13 -20.5,1691.56 -713.1,2390.6 -1351.8,1364.14 -1341.3,1945.53 -2022,2418.23 -48.3,33.63 -100.3,66.67 -156.3,99.41 -169.8,99.1 -378.2,195.39 -645.9,295.53 -650.2,243.37 -1314.5,102.98 -2087.3,-100.14 -55.6,-14.53 -111.7,-29.47 -168.4,-44.62 -583.13,-155.54 -1229.24,-332.77 -1976.5,-401.98 -0.57,-0.06 -1.15,-0.11 -1.72,-0.15 -367.24,-33.99 -758.85,-41.83 -1179.42,-8.26 -1947.58,155.49 -5146.02,167.74 -4463.66,-2582.7 3.63,-14.63 7.1,-29.16 10.42,-43.48 C 3291.3,3705.41 640.063,4725.24 2059.56,2456.03"/></g><path id="path22" style="fill:#efd7bf;fill-opacity:1;fill-rule:nonzero;stroke:none" d="m 4905.04,10082.1 c 6.33,-25.5 12.39,-50.8 18.18,-75.8 234.14,7.4 502.13,51.9 808.75,139 0,0 3016.4,3863.7 9013.63,4455 -640.4,-59.3 -1323.3,-72.9 -2056.7,-14.4 -3396.24,271.2 -8973.77,292.5 -7783.86,-4503.8"/><g transform="scale(1.23199)" id="g24"><path id="path26" style="fill:#adb2bc;fill-opacity:1;fill-rule:nonzero;stroke:none" d="m 16299,9166.88 1,1.24 -1,-1.24"/></g><g transform="scale(1.73602)" id="g28"><path id="path30" style="fill:#efd7bf;fill-opacity:1;fill-rule:nonzero;stroke:none" d="m 11999.9,2477.79 4012.3,1.21 c 0,0 218.6,540.72 287.8,1253.38 -658.3,917.09 -1963.4,1954.52 -1963.4,1954.52 0,0 -1785,-2311.2 -2336.7,-3209.11"/></g><path id="path32" style="fill:#f1a34f;fill-opacity:1;fill-rule:nonzero;stroke:none" d="m 12516.4,4328.6 h 1431.4 l -1.2,35.6 79.3,3313.1 c 0,0 -1555.8,451.2 -1898.9,96.2 -300.4,-311.1 -1115.4,-1542.4 -1158.3,-2271.2 -41.7,-708.1 741.8,-1173.7 1547.7,-1173.7"/><g transform="scale(1.25455)" id="g34"><path id="path36" style="fill:#d16e24;fill-opacity:1;fill-rule:nonzero;stroke:none" d="m 16300,5892.46 c 0,0 -1472.6,668.93 -1751.5,231.95 -148.1,-231.95 -555.6,-1157.62 -585.7,-1738.54 -29.2,-564.43 520.2,-935.55 1085.4,-935.55 H 16052 l 248,2442.14"/></g><g transform="scale(1.47802)" id="g38"><path id="path40" style="fill:#e78b37;fill-opacity:1;fill-rule:nonzero;stroke:none" d="m 16300,6748.29 c 0,0 -5616.6,49.39 -6236.9,48.07 -319.11,-0.67 -195.09,-274.59 -282.98,-568.09 -194.18,-648.09 -449.11,-1481.85 -408.59,-1625.96 57.78,-205.21 5675.27,-262.92 5829.27,-215.56 154,47.36 1099.2,2361.54 1099.2,2361.54"/></g><path id="path42" style="fill:#e29142;fill-opacity:1;fill-rule:nonzero;stroke:none" d="m 12516.4,4328.6 h 1431.4 l -1.2,35.6 c -46.5,34.1 -134.4,76.7 -276.6,131.7 -795.4,307.6 -1897.6,1002.3 -1897.6,1002.3 0,0 -403.9,-211.5 -803.7,4.1 -41.7,-708.1 741.8,-1173.7 1547.7,-1173.7"/><g transform="scale(1.3355)" id="g44"><path id="path46" style="fill:#df812f;fill-opacity:1;fill-rule:nonzero;stroke:none" d="m 8815,4116.97 c 88.95,-817.52 978.73,-886.56 1576.5,-878.33 l 5908.5,-1.04 -100.3,559.49 -161.2,1416.1 c 0,0 -2855.9,67.84 -4721.3,86.86 -920.2,9.36 -1630.84,345.12 -1715.31,267.69 -118.68,-108.72 -768.55,-744.22 -792.44,-1241.49 -3.59,-74.72 -1.49,-144.36 5.55,-209.28"/></g><path id="path48" style="fill:#b7591a;fill-opacity:1;fill-rule:nonzero;stroke:none" d="m 12661.7,7218.4 c 0,0 28.9,-204.1 773.8,-189.1 744.9,14.9 1568.8,46.7 1678.6,48.9 109.8,2.2 -1296,870.4 -1784.3,704.7 -488.4,-165.7 -668.1,-564.5 -668.1,-564.5"/><g transform="scale(1.3355)" id="g50"><path id="path52" style="fill:#d16e24;fill-opacity:1;fill-rule:nonzero;stroke:none" d="m 8815,4116.97 c 88.95,-817.52 978.73,-886.56 1576.5,-878.33 l 5908.5,-1.04 -100.3,559.49 c -833.5,-4.64 -5474.9,-29.13 -6487.81,-11.76 -632.95,10.94 -837.96,184.05 -896.89,331.64"/></g><g transform="scale(1.14853)" id="g54"><path id="path56" style="fill:#7f2722;fill-opacity:1;fill-rule:nonzero;stroke:none" d="m 16299,9832.95 1,1.34 -1,-1.34"/></g><g transform="scale(1.35618)" id="g58"><path id="path60" style="fill:#f1a34f;fill-opacity:1;fill-rule:nonzero;stroke:none" d="m 14426,3730.25 c 146.5,-333.73 541.7,-538.5 945.4,-538.5 h 928.6 l -72.6,2526.72 c 0,0 -886,275.19 -1108.6,13.42 -194.9,-229.39 -723.6,-1137.31 -751.5,-1674.7 -6.1,-118.86 15.5,-228.5 58.7,-326.94"/></g><g transform="scale(1.36212)" id="g62"><path id="path64" style="fill:#e29142;fill-opacity:1;fill-rule:nonzero;stroke:none" d="m 14363.2,3714 c 145.8,-332.28 539.3,-536.15 941.2,-536.15 h 832.9 c 162.7,184.2 110.3,271.49 -337.9,419.64 -608.7,201.38 -947.4,281.03 -947.4,281.03 0,0 -122.8,-171.42 -488.8,-164.52"/></g><g transform="scale(1.56428)" id="g66"><path id="path68" style="fill:#f1a34f;fill-opacity:1;fill-rule:nonzero;stroke:none" d="m 12913.4,3517.47 c 24.2,465.91 351,1208.3 469.8,1394.32 173.2,271.5 920.9,10.74 1249.1,-120.56 186.7,554.57 371,1098.97 471,1394.19 45.9,135.4 173,226.48 316,226.48 0,0 533.7,78.84 616.3,-632.23 264.4,-2276.19 52,-3010.21 -896.5,-3015.84 -118.9,-0.7 -351.4,1.41 -550,3.65 l -0.1,-0.32 h -805.1 c -453.3,0 -893.9,297.64 -870.5,750.31"/></g><g transform="scale(1.55223)" id="g70"><path id="path72" style="fill:#d16e24;fill-opacity:1;fill-rule:nonzero;stroke:none" d="m 13013.6,3546.32 c 24.4,470.88 353.7,1221.15 473.5,1409.21 148.6,233.59 716.7,77.37 1086.4,-56.12 64.6,-23.32 123.2,-46 172.4,-65.71 188.1,560.42 373.9,1110.73 474.7,1409.14 46.2,136.77 174.2,228.84 318.4,228.84 0,0 53.2,-0.49 126.4,-7.18 h 0.1 c 118,-10.75 287.5,-37.61 368.7,-104.28 55.1,-45.23 109.7,-244.94 142.6,-528.86 77.7,-670.71 123.2,-1213.48 112.7,-1639.64 -5.3,-218.52 -48.6,-401.68 -79.8,-564.03 -21.7,-113.71 -50.1,-214.27 -85.3,-302.66 -152.5,-383.38 -433.6,-537.87 -867.7,-540.45 -50.5,-0.32 -121.2,-0.13 -201.2,0.39 -109.9,0.7 -237.3,1.99 -353.2,3.28 l -0.1,-0.32 h -811.3 c -456.8,0 -900.9,300.86 -877.3,758.39"/></g><g transform="scale(1.4918)" id="g74"><path id="path76" style="fill:#f1a34f;fill-opacity:1;fill-rule:nonzero;stroke:none" d="m 15697.6,4777.39 c 0,0 470.9,1731.33 502.3,1863.39 13.8,58.86 56.8,80.13 100.1,85.6 -76.2,6.94 -131.6,7.46 -131.6,7.46 -149.9,0 -283.1,-95.47 -331.3,-237.45 -104.9,-309.56 -298.1,-880.48 -493.9,-1461.93 -51.2,20.45 354.4,-257.07 354.4,-257.07"/></g><g transform="scale(1.55957)" id="g78"><path id="path80" style="fill:#b7591a;fill-opacity:1;fill-rule:nonzero;stroke:none" d="m 15112.2,3872.03 c 94.2,21.09 207.8,17.18 249.3,35.26 57,24.95 -26.3,49.83 -140.1,42.71 -76.7,-4.81 -127.5,-48.16 -208.6,-80.41 31.5,2.24 66.4,2.82 99.4,2.44 z m 259.5,-202.11 c 10.5,4.36 9.7,19.11 3,38.41 -14.4,-2.69 -29.4,-4.94 -44.6,-6.93 15.3,-22.31 30.2,-36.29 41.6,-31.48 z m 224.3,-245.51 c 0,0 60.4,-36.3 102.4,-103.5 h 43.6 c 5.3,70.6 7.5,196.6 -33.9,280.59 -2.5,4.56 -6,10.97 -10.5,18.92 -5.5,8.72 -10.1,16.29 -13.9,22.89 -3.8,6.54 -6.8,12.06 -9.1,16.67 -32.9,54.63 -80.1,125.74 -111.6,140.68 -7.8,-13.59 -19.7,-25.71 -34.6,-36.55 59.8,-90.54 -55.4,-199.6 -55.4,-199.6 0,0 30.2,-73.36 123,-140.1 z m -33,376.32 c 0.5,0.51 4.2,5 7.6,13.27 -2.4,-4.3 -4.9,-8.59 -7.6,-13.27 z m -1125.6,671.91 c 56.9,170.63 411.7,117.34 411.7,117.34 0,0 240.8,-298.67 311,-305.79 70,-7.11 -144.6,287.97 -144.6,287.97 135.8,10.7 481.8,-124.4 481.8,-124.4 0,0 -21.9,-348.43 48.2,-341.37 70,7.18 0,309.38 0,309.38 131.4,-32.06 254,-156.46 254,-156.46 153.3,-202.68 -175.2,-352.02 -175.2,-352.02 0,0 -4.4,-120.86 87.6,-259.49 0,0 115.7,-142.6 78.5,-326.89 h 101.8 c -19.5,132.67 62.1,233.27 62.1,233.27 69.8,105.23 66.5,196.92 66.5,196.92 0,0 -249.2,113.3 -132.9,266.99 0,0 93,94.45 192.7,118.69 0,0 -53.2,-229.23 0,-234.68 53.1,-5.39 36.5,258.98 36.5,258.98 0,0 28.5,11.09 70.4,25.78 -5.3,-216.92 -23,-404.54 -54.1,-565.61 -30.8,12.38 -54.4,28.54 -66.1,48.93 -2,3.52 -4,6.86 -5.8,10.13 2.8,-6.74 5.8,-10.13 5.8,-10.13 -23.9,-11.35 -59.8,-65.34 -84.6,-106.7 -3.6,-7.11 -9.2,-16.8 -17.5,-30.01 -3.4,-6.02 -6.1,-10.96 -8,-14.36 -28.7,-58.28 -29.8,-143.18 -26.7,-198.2 h 369.5 v -16.03 h -21.5 c -7.9,-212.42 -172,-392.99 -402.3,-468.46 h 332.1 c 43.9,0 79.5,-28.85 79.5,-64.44 H 14983 c 0,4.43 0.6,8.79 1.6,12.95 7.4,29.37 39.4,51.49 77.8,51.49 h 332.1 c -230.3,75.47 -394.3,256.04 -402.3,468.46 h -14.9 v 16.03 h 685.8 c -15.8,28.22 -35.2,55.79 -57.9,75.99 -2.6,2.18 -6.1,5.06 -10.3,8.52 -11.3,8.47 -19.1,14.82 -24.5,19.5 -34.5,26.93 -82.2,61.3 -105.2,64.57 0,0 1.2,3.46 0.9,9.42 -0.2,-3.01 -0.6,-6.09 -0.9,-9.42 -7.9,-74.9 -187.1,-140.43 -297.3,-153.89 -110.3,-13.47 -76.2,23.34 -38.2,77.9 37.9,54.51 158.2,78.94 185.6,104.01 27.5,25.13 -29.2,25.2 -95.7,0.57 -66.5,-24.62 -75.5,-90.28 -182.1,-131.7 -106.5,-41.42 -266.9,102.08 -266.9,102.08 85,3.53 206.2,78.42 201.8,101.31 -4.4,22.89 -205.8,-39.5 -240.3,-42.51 -34.4,-3.02 -112.8,31.74 -124.9,144.4 -12.2,112.59 215.3,144.01 215.3,144.01 0,0 52.4,-31.67 111.7,-63.54 11.6,12.31 30.6,25.9 52.8,41.16 -19.5,14.05 -37.1,26.1 -48,33.54 -21.9,-4.81 -45.8,-8.53 -72.4,-10.65 -184,-14.17 -324.1,266.68 -324.1,266.68 127,-32 354.7,24.88 363.5,60.47 8.7,35.52 -328.5,31.99 -381,42.64 -52.6,10.7 -144.6,95.98 -87.6,266.67"/></g><g transform="scale(1.64282)" id="g82"><path id="path84" style="fill:#25436d;fill-opacity:1;fill-rule:nonzero;stroke:none" d="m 14541.7,3915.7 c 89.3,24.65 197.2,20.03 236.6,41.27 54,29.1 -25,58.19 -133.1,49.92 -72.7,-5.61 -121,-56.37 -197.9,-94.05 29.9,2.68 63,3.29 94.4,2.86 z m 459.3,-523.55 c 0,0 57.2,-42.43 97.2,-121.07 h 41.3 c 5.1,82.6 7.1,229.97 -32.2,328.21 -2.3,5.3 -5.7,12.91 -10,22.16 -10.4,20.39 -17.4,35.37 -21.8,46.2 -31.1,63.86 -76,147.13 -106,164.6 0,0 3.8,5.29 7.4,15.58 -2.4,-4.99 -4.8,-10.16 -7.4,-15.58 -7.4,-15.95 -18.6,-30.13 -32.8,-42.73 56.8,-105.86 -52.5,-233.44 -52.5,-233.44 0,0 28.6,-85.77 116.8,-163.93 z m -213,287.19 c 9.9,5.11 9.2,22.34 2.8,44.92 -13.7,-3.1 -27.9,-5.84 -42.3,-8.09 14.5,-26.12 28.6,-42.43 39.5,-36.83 z m -887,938.75 c 54,199.6 390.8,137.2 390.8,137.2 0,0 228.7,-349.27 295.2,-357.55 66.6,-8.34 -137.2,336.8 -137.2,336.8 128.9,12.47 457.4,-145.54 457.4,-145.54 0,0 -20.8,-407.48 45.7,-399.2 66.6,8.34 0,361.76 0,361.76 124.8,-37.44 241.2,-182.92 241.2,-182.92 145.5,-237.03 -166.3,-411.67 -166.3,-411.67 0,0 -4.2,-141.4 83.2,-303.56 0,0 109.7,-166.73 74.5,-382.33 h 96.6 c -18.5,155.16 58.9,272.88 58.9,272.88 66.3,123.02 63.2,230.28 63.2,230.28 0,0 -236.6,132.51 -126.2,312.26 0,0 88.3,110.42 183,138.85 0,0 -50.5,-268.13 0,-274.46 50.4,-6.27 34.7,302.83 34.7,302.83 0,0 249.1,119.85 346.9,110.42 0,0 -154.5,-261.81 -104.1,-255.54 50.5,6.33 224,271.3 224,271.3 0,0 255.5,47.3 296.5,-104.09 41,-151.44 -25.2,-227.11 -63.1,-236.6 -37.8,-9.44 -280.7,-6.27 -274.5,-37.86 6.4,-31.54 170.4,-82 261.9,-53.63 0,0 -101,-249.14 -233.4,-236.54 -132.5,12.6 -173.5,94.59 -255.6,100.92 -82,6.33 -141.9,-15.77 -100.9,-37.86 41,-22.04 179.8,-7.25 246.1,-63.55 66.2,-56.31 119.8,-91 -3.2,-116.27 -123,-25.19 -343.8,-9.43 -388,85.22 -1.9,4.14 -3.7,8.04 -5.5,11.81 2.7,-7.79 5.5,-11.81 5.5,-11.81 -22.7,-13.27 -56.8,-76.57 -80.4,-125.02 -3.4,-8.22 -8.7,-19.54 -16.5,-34.88 -2.8,-6.15 -5.1,-11.33 -6.8,-15.16 -28,-68.24 -29.1,-168.55 -26.1,-233.5 h 104.5 151.7 94.6 v -18.69 h -20.4 c -7.5,-248.47 -163.4,-459.57 -381.9,-547.9 h 315.2 c 41.6,0 75.4,-33.72 75.4,-75.36 H 14419 c 0,41.64 33.8,75.36 75.3,75.36 h 315.3 c -218.5,88.33 -374.4,299.43 -381.9,547.9 h -14.1 v 18.69 h 651 c -15.1,32.99 -33.5,65.31 -54.9,88.93 -2.5,2.56 -5.9,5.97 -9.9,9.98 -10.7,9.86 -18.1,17.29 -23.1,22.83 -32.8,31.47 -78.1,71.65 -100,75.54 0,0 1.1,4.02 0.9,10.96 -0.3,-3.53 -0.6,-7.12 -0.9,-10.96 -7.5,-87.71 -177.6,-164.29 -282.2,-180.05 -104.7,-15.71 -72.4,27.33 -36.3,91.06 36.1,63.79 150.2,92.34 176.2,121.74 26.1,29.4 -27.8,29.46 -90.8,0.67 -63.1,-28.85 -71.7,-105.61 -172.9,-154.07 -101.2,-48.45 -253.3,119.43 -253.3,119.43 80.6,4.08 195.7,91.62 191.5,118.4 -4.1,26.84 -195.4,-46.2 -228.1,-49.67 -32.7,-3.53 -107.1,37.13 -118.6,168.85 -11.5,131.67 204.4,168.43 204.4,168.43 0,0 49.8,-37.01 106,-74.26 11.1,14.37 29.1,30.31 50.2,48.09 -18.6,16.43 -35.2,30.56 -45.6,39.26 -20.8,-5.66 -43.5,-10.04 -68.8,-12.42 -174.6,-16.68 -307.7,311.84 -307.7,311.84 120.6,-37.43 336.8,29.1 345.2,70.68 8.3,41.57 -311.9,37.43 -361.8,49.91 -49.9,12.48 -137.2,112.24 -83.1,311.84"/></g><path id="path86" style="fill:#2a4e96;fill-opacity:1;fill-rule:nonzero;stroke:none" d="m 3876.73,5699.9 c 0,-25.1 20.38,-45.4 45.43,-45.4 h 3511.37 c 25.04,0 45.43,20.3 45.43,45.4 v 901 c 0,25 -20.39,45.4 -45.43,45.4 H 3922.16 c -25.05,0 -45.43,-20.4 -45.43,-45.4 z m 45.43,1053.8 h 3511.37 c 84.24,0 152.79,-68.6 152.79,-152.8 v -901 c 0,-84.3 -68.55,-152.8 -152.79,-152.8 H 3922.16 c -84.25,0 -152.8,68.5 -152.8,152.8 v 901 c 0,84.2 68.55,152.8 152.8,152.8"/><path id="path88" style="fill:#2a4e96;fill-opacity:1;fill-rule:nonzero;stroke:none" d="M 9919.47,10471.9 V 6129.1 H 2300.1 v 4342.8 h 7619.37"/><path id="path90" style="fill:#466aa5;fill-opacity:1;fill-rule:nonzero;stroke:none" d="M 9663.11,10472 V 6129.1 H 2043.76 V 10472 h 7619.35"/><path id="path92" style="fill:#395b8e;fill-opacity:1;fill-rule:nonzero;stroke:none" d="M 2043.76,10472 V 6129.1 h 7619.35 v 510.4 C 5730.29,7065.6 3810.7,9406.1 3130.43,10472 H 2043.76"/><path id="path94" style="fill:#2a4e96;fill-opacity:1;fill-rule:nonzero;stroke:none" d="m 3109.79,5547.1 h 6655.48 c 59.67,0 108.48,-48.8 108.48,-108.5 v -1015 c 0,-59.7 -48.81,-108.5 -108.48,-108.5 H 3109.79 c -59.67,0 -108.49,48.8 -108.49,108.5 v 1015 c 0,59.7 48.82,108.5 108.49,108.5"/><path id="path96" style="fill:#233862;fill-opacity:1;fill-rule:nonzero;stroke:none" d="m 2408.57,5547.1 h 6655.49 c 59.67,0 108.5,-48.8 108.5,-108.5 v -1015 c 0,-59.7 -48.83,-108.5 -108.5,-108.5 H 2408.57 c -59.65,0 -108.47,48.8 -108.47,108.5 v 1015 c 0,59.7 48.82,108.5 108.47,108.5"/><path id="path98" style="fill:#2a4e96;fill-opacity:1;fill-rule:nonzero;stroke:none" d="M 7435.29,8643.8 V 7432.2 H 4048.46 v 1211.6 h 3386.83"/><path id="path100" style="fill:#233862;fill-opacity:1;fill-rule:nonzero;stroke:none" d="m 7289.43,8643.8 67.45,-1211.6 H 3970.04 l -71.86,1211.6 h 3391.25"/><path id="path102" style="fill:#233862;fill-opacity:1;fill-rule:nonzero;stroke:none" d="m 8119.55,6556.4 h 1194.26 c 59.71,0 108.56,-48.8 108.56,-108.5 v -36.2 c 0,-59.7 -48.85,-108.6 -108.56,-108.6 H 8119.55 c -59.71,0 -108.56,48.9 -108.56,108.6 v 36.2 c 0,59.7 48.85,108.5 108.56,108.5"/><g transform="scale(1.44342)" id="g104"><path id="path106" style="fill:#efd7bf;fill-opacity:1;fill-rule:nonzero;stroke:none" d="m 12809.1,10654.8 c 933.6,245.4 1736.2,415 2521.7,121 323.4,-121 575.2,-237.4 780.3,-357.1 67.7,-39.5 130.5,-79.4 188.9,-120.1 V 8371.47 h -3694.3 v 2229.43 c 68.5,18.3 136.2,36.3 203.4,53.9"/></g><g transform="scale(1.42669)" id="g108"><path id="path110" style="fill:#f4e5d7;fill-opacity:1;fill-rule:nonzero;stroke:none" d="M 12959.3,10779.7 V 8676.57 H 16300 v 1864.33 c -207.5,121.1 -462.3,238.8 -789.4,361.2 -794.8,297.5 -1606.7,125.9 -2551.3,-122.4"/></g><path id="path112" style="fill:#a54e13;fill-opacity:1;fill-rule:nonzero;stroke:none" d="m 11752.6,5734 12.4,43.5 c -0.7,-1.7 -6.8,-17.5 -12.4,-43.5"/><path id="path114" style="fill:#ffb27d;fill-opacity:1;fill-rule:nonzero;stroke:none" d="m 15830.6,10511.8 c 0,0 -935.2,293.4 -1017.8,319.3 -82.6,25.8 -1175.3,670 -1175.3,670 l -709.7,-403.5 c 0,0 1528,-673.1 1738.5,-734.5 347.9,-101.5 1077.9,-17.3 1077.9,-17.3 31.7,-68.1 122.1,-94.9 216.6,-68.6 94.4,26.3 69.4,8.4 136.5,25.4 67.1,16.9 30,112.1 30,112.1 -104.8,218.9 -296.7,97.1 -296.7,97.1"/><path id="path116" style="fill:#82b378;fill-opacity:1;fill-rule:nonzero;stroke:none" d="m 13571.7,11696.5 489.9,-408 -322.5,-630 z"/><path id="path118" style="fill:#aa413e;fill-opacity:1;fill-rule:nonzero;stroke:none" d="m 10632.3,4786.8 c 28.7,-96.4 160.7,-160.6 178.5,-278.5 14.8,-97.7 66.6,-158.6 120.4,-176.5 h 342.3 c 8.2,19 26.7,81.3 -69.7,102.3 -114.2,25 -157.3,163.4 -150.2,292 3.1,53.9 1.6,115.3 -1,168.5 -3.6,73.6 -9.6,131.4 -9.6,131.4 l -242.9,57.1 -25.5,-32.7 -24.4,-31.5 c 0,0 -146.5,-135.7 -117.9,-232.1"/><path id="path120" style="fill:#aa413e;fill-opacity:1;fill-rule:nonzero;stroke:none" d="m 12573.5,4331.8 h 829.4 c -8.6,29.8 -36.6,80.9 -128.3,95.8 -128,20.8 -349.8,95.1 -399.3,258.8 -1.5,5.3 -3,10.7 -4.2,16.1 -39.3,175 -324.9,-53.5 -324.9,-53.5 0,0 -0.9,-7.1 -2.1,-19 -6.6,-63.8 -23.4,-268.8 29.4,-298.2"/><path id="path122" style="fill:#2b478b;fill-opacity:1;fill-rule:nonzero;stroke:none" d="m 13240.5,9010.7 c 0,0 -43.3,-541.2 -94.3,-1191.9 -69.3,-883.8 -152.7,-1969.4 -160.9,-2175 -14.3,-357.2 -71.5,-928.4 -71.5,-928.4 0,0 -135.6,-135.7 -407,-78.5 0,0 -241.9,815.5 -311,1678.3 -1,14.1 -2.1,28.4 -3.2,42.6 -64.2,878.3 -164.2,2727.9 -164.2,2727.9 l 1212.1,-75"/><path id="path124" style="fill:#233862;fill-opacity:1;fill-rule:nonzero;stroke:none" d="m 13240.5,9010.7 c 0,0 -43.3,-541.2 -94.3,-1191.9 l -950.4,-1503.6 c -1,14.1 -2.1,28.4 -3.2,42.6 -64.2,878.3 -164.2,2727.9 -164.2,2727.9 l 1212.1,-75"/><path id="path126" style="fill:#2b478b;fill-opacity:1;fill-rule:nonzero;stroke:none" d="m 13042.4,8946.4 c 0,0 -781.9,-1960.2 -1296.1,-2881.4 -514.1,-921.2 -674.8,-1178.2 -674.8,-1178.2 0,0 -294.6,117.8 -321.3,198.1 0,0 196.6,1778.4 540.9,2212 194.6,244.9 423.1,980.1 433.8,1237.2 10.7,257 108.4,849.1 108.4,849.1 l 1209.1,-436.8"/><path id="path128" style="fill:#ffb27d;fill-opacity:1;fill-rule:nonzero;stroke:none" d="m 12926,11931.1 c 0,0 421.6,-403.8 739.1,-404 0,0 -42.4,113.2 -144.7,220.5 20.4,39.8 38.2,76.4 53.5,109.2 55.1,118.6 78,188.9 78,188.9 l -228,343.5 -51.1,77 c -16.5,-59.1 -37.3,-112.2 -60.9,-159.8 -1.8,-3.7 -3.6,-7.5 -5.5,-11.1 -143.7,-281.2 -380.4,-364.2 -380.4,-364.2"/><path id="path130" style="fill:#a8d29f;fill-opacity:1;fill-rule:nonzero;stroke:none" d="m 11813.9,9406.9 c -11.5,-31.3 42.9,-87 67.3,-108.7 108.4,-96.6 214.8,-181.4 328.7,-253.7 79.4,-50.5 162.5,-95 252.2,-133.1 258.7,-112.1 593.8,-151.8 701.7,-187.6 11.5,-3.6 23,-2.5 34,1.9 9.1,3.6 118.1,328.3 242.7,742.1 5,15.8 10.5,33.3 14.2,49.6 l 1.8,5.7 c 49.3,160.9 96.9,331.9 142.7,501.8 101.2,375 185.3,741.1 198.7,954.7 15.8,250.9 -68.6,446.1 -154.4,597.3 l -71.8,119.6 c -106.1,11.4 -209.7,50.5 -298.8,136 -96.3,92.4 -201.4,192.5 -226.2,184.4 -293,-102.1 -576.5,-588 -762.5,-1183.5 -5.8,-18.7 -11.6,-37.7 -17.4,-56.7 -18.3,-61.7 -35.8,-124.5 -52,-188.1 -113,-447.1 -259.9,-819.1 -345,-1035.5 -24.5,-62.3 -43.9,-111.6 -55.9,-146.2"/><path id="path132" style="fill:#82b378;fill-opacity:1;fill-rule:nonzero;stroke:none" d="m 11813.9,9406.9 c -11.5,-31.3 42.9,-87 67.3,-108.7 108.4,-96.6 214.8,-181.4 328.7,-253.7 697.3,1005 626.1,2215.5 626.1,2215.5 l -569.2,-483.3 c -18.3,-61.7 -35.8,-124.5 -52,-188.1 -113,-447.1 -259.9,-819.1 -345,-1035.5 -24.5,-62.3 -43.9,-111.6 -55.9,-146.2"/><path id="path134" style="fill:#ed975d;fill-opacity:1;fill-rule:nonzero;stroke:none" d="m 13305.4,12300.6 c 0,0 0.3,-1.9 1,-5.3 8.4,-40.8 69.7,-305.6 267.5,-438.5 55.1,118.6 78,188.9 78,188.9 l -228,343.5 c -55.3,-34.6 -96.6,-69.3 -112,-82.8 -4.2,-3.7 -6.5,-5.8 -6.5,-5.8"/><path id="path136" style="fill:#ffb27d;fill-opacity:1;fill-rule:nonzero;stroke:none" d="m 13788,12036.6 c 0,0 -506.6,-15.9 -511.6,299.7 -5,315.7 -73.8,526.2 249.5,549.6 323.2,23.5 388,-95.9 415.3,-200.9 27.3,-104.9 -21.5,-636.2 -153.2,-648.4"/><path id="path138" style="fill:#233862;fill-opacity:1;fill-rule:nonzero;stroke:none" d="m 14176.3,12710.1 c 54.2,85.1 75.1,159.9 75.1,159.9 0,0 -89.8,-64 -228.1,75.5 -138.3,139.4 -395.1,317 -619.5,216.2 -14.2,-6.4 -28.3,-13.6 -42,-21.5 18.3,49.6 63.4,108.6 63.4,108.6 -91,-48.2 -141.6,-163.4 -141.6,-163.4 v 0 c -2.7,-2.3 -5.4,-4.6 -8.1,-7 -56.6,0.7 -158.4,-61.3 -158.4,-61.3 30.6,15.4 68.2,10.2 97.9,1.2 -114.4,-130.6 -172.4,-305 -112.1,-424.2 88.2,-174.3 124,-130.7 182.4,-340.9 0,0 76.5,13.8 78,66.3 1.5,52.5 -54.7,179.4 37.1,178.1 91.7,-1.3 67.7,-68.5 113.9,-54.7 46.2,13.8 25.9,187.8 224.1,162.7 198.3,-25.2 383.7,19.5 437.9,104.5"/><path id="path140" style="fill:#415da5;fill-opacity:1;fill-rule:nonzero;stroke:none" d="m 14708.4,9318.2 18.3,26.3 87.9,-44.6 z m -1584.8,-146.9 6.4,-38.7 1474,247.2 -56.3,-80.4 -17.5,5.9 -19.6,-58.8 -795.1,-1135.9 32.1,-22.5 719.5,1027.7 -388,-1163.9 37.2,-12.4 429.7,1289.1 91.2,130.3 16.1,-11.1 1.2,-3.4 -27.2,-27.5 V 7828 h 39.2 v 1457.6 l 9.7,-1.7 37.1,-103.2 -2.8,-2.4 6.2,-7 415.2,-1157.1 36.9,13.3 -381.1,1062 766.3,-882.1 29.6,25.7 -832.5,958.3 -30.4,84.9 212.7,-36.6 1116.9,-566.2 17.7,35 -1003.3,508.6 1118.6,-192.4 6.6,38.7 -1244,213.9 -201.4,102.2 25.7,25.9 1399.7,207.7 -5.8,38.8 -1347.8,-200 11.2,11.3 1219.7,523.9 -15.4,36.1 -1130.6,-485.7 887.4,895.2 -27.8,27.6 -955.8,-964.1 -107.5,-46.2 770.1,1211.5 -33.1,21.1 -700.9,-1102.7 c 150,394.9 492.9,1297.8 500.7,1321.3 l -37.2,12.4 c -7.4,-22.3 -353.7,-934.2 -550.8,-1453.1 -9,22 -18.2,44.6 -27.6,67.9 l 116.4,1406.8 -39.1,3.2 -110,-1329.6 c -206.8,508.3 -501.4,1233.6 -508.9,1255.8 l -37.2,-12.4 c 7.6,-23.1 344.9,-852.8 505.8,-1248.5 l -725.6,1147.5 -33.2,-21 826.5,-1307 -1230.2,853.1 -22.4,-32.3 1199.5,-831.7 -1436.7,-241"/><path id="path142" style="fill:#2c3a64;fill-opacity:1;fill-rule:nonzero;stroke:none" d="m 14936.2,9406.9 c 0,-159.7 -129.5,-289.3 -289.3,-289.3 -159.8,0 -289.3,129.6 -289.3,289.3 0,159.8 129.5,289.3 289.3,289.3 159.8,0 289.3,-129.5 289.3,-289.3"/><g transform="scale(1.00267)" id="g144"><path id="path146" style="fill:#2c3a64;fill-opacity:1;fill-rule:nonzero;stroke:none" d="m 14607.9,7924.55 c 803.6,0 1457.3,653.76 1457.3,1457.31 0,803.64 -653.7,1457.44 -1457.3,1457.44 -259.7,0 -514.6,-69.2 -737.1,-199.9 -216.2,-127.1 -397.2,-308.7 -523.3,-525.4 -128.9,-221.3 -196.9,-474.42 -196.9,-732.14 0,-803.55 653.7,-1457.31 1457.3,-1457.31 z m 0,3149.45 c 933,0 1692.1,-759.1 1692.1,-1692.14 0,-933.01 -759.1,-1692.08 -1692.1,-1692.08 -933,0 -1692.1,759.07 -1692.1,1692.08 0,299.1 79.1,593.11 228.8,850.24 146.4,251.4 356.4,462.3 607.2,609.7 258.6,151.9 554.6,232.2 856.1,232.2"/></g><path id="path148" style="fill:#b84c42;fill-opacity:1;fill-rule:nonzero;stroke:none" d="m 14633.9,7982.9 c 790.7,0 1434.1,643.3 1434.1,1434.1 0,790.7 -643.4,1434.1 -1434.1,1434.1 -790.8,0 -1434.1,-643.4 -1434.1,-1434.1 0,-790.8 643.3,-1434.1 1434.1,-1434.1 z m 0,2928.5 c 824,0 1494.4,-670.4 1494.4,-1494.4 0,-824.1 -670.4,-1494.5 -1494.4,-1494.5 -824,0 -1494.4,670.4 -1494.4,1494.5 0,824 670.4,1494.4 1494.4,1494.4"/><path id="path150" style="fill:#ffb27d;fill-opacity:1;fill-rule:nonzero;stroke:none" d="m 13184.6,9594.3 c -90.8,55.9 -301.6,80.4 -301.6,80.4 0,0 -476.7,618 -549.7,758.6 -73.1,140.7 757.5,565.2 786.6,800.1 29.2,235 75.6,670.6 -260.1,651.2 0,0 -800,-642.1 -1119.1,-1436.4 0,0 357.9,-669.3 984.1,-962.4 0,0 361.2,-217.5 424.1,-232.9 63,-15.4 113.7,59 136.2,101.6 22.5,42.6 -9.7,183.9 -100.5,239.8"/><path id="path152" style="fill:#a8d29f;fill-opacity:1;fill-rule:nonzero;stroke:none" d="m 13006.9,10961.7 c 0,0 -303.3,409.2 -594.9,491.4 -11.8,3.3 -16.4,17.5 -8.7,27 66.4,81.2 319.2,378.6 543.7,483.2 0,0 395.8,-206.6 345.3,-413.7 -50.4,-207.1 -285.4,-587.9 -285.4,-587.9"/><path id="path154" style="fill:#ffb27d;fill-opacity:1;fill-rule:nonzero;stroke:none" d="m 15919.1,10543.3 c 0,0 -78.3,-5.6 -65.8,-39 12.5,-33.3 118.7,-246.3 247.7,-200.6 l -181.9,239.6"/><g transform="scale(1.33304)" id="g156"><path id="path158" style="fill:#2c3a64;fill-opacity:1;fill-rule:nonzero;stroke:none" d="m 14925.4,5812.56 c 0,-7.2 0.4,-14.32 1.1,-21.3 l -926.8,-155.51 4.9,-29.03 926.7,155.51 c 11.4,-47.49 38.2,-88.89 75,-118.6 l -562.5,-803.58 24.1,-16.88 539.6,771.02 -291,-873.19 28,-9.3 302,906.2 c 24.8,-12.3 52.2,-19.88 81.2,-21.83 v -968.01 h 29.5 v 968.01 c 16.8,1.12 33.1,4.12 48.6,8.85 l 300.5,-837.11 27.6,9.91 -285.9,796.74 574.9,-661.79 22.2,19.35 -599.2,689.7 c 31.4,17.03 58,41.56 77.6,71.2 l 33.9,-5.86 837.8,-424.66 13.3,26.25 -752.6,381.46 839.1,-144.26 5,28.96 -933.2,160.53 -24.5,12.38 c 11.1,26.03 17.1,54.69 17.1,84.84 0,5.78 -0.2,11.48 -0.7,17.18 l 926.2,137.43 -4.3,29.11 -926.1,-137.43 c -2,8.78 -4.4,17.33 -7.3,25.66 l 845.8,363.3 -11.7,27.01 -845.7,-363.31 -0.5,0.9 663.9,669.6 -21,20.7 -658.7,-664.42 c -13.4,18.76 -29.7,35.41 -48.3,49.07 l 487.2,766.36 -24.9,15.75 -487.1,-766.29 c -4.2,2.33 -8.7,4.5 -13.1,6.53 121.7,320.39 344.6,907.4 350,923.75 l -27.9,9.3 c -4.8,-14.48 -201.2,-531.72 -349.6,-922.55 -20,6.08 -41.2,9.38 -63.2,9.38 -3.6,0 -7.2,-0.15 -10.7,-0.3 l 76.9,929.75 -29.3,2.4 -77.5,-935.75 c -9.3,-1.73 -18.4,-4.13 -27.3,-7.05 -153.1,376.5 -354.1,871.54 -359.5,887.36 l -27.9,-9.3 c 5.4,-16.43 233.7,-578.22 360.1,-889.09 -2.7,-1.35 -5.4,-2.7 -8.1,-4.13 l -516.9,817.46 -24.8,-15.76 516.9,-817.53 c -20.6,-15.08 -38.4,-33.68 -52.6,-54.98 l -767.3,532.01 -16.8,-24.15 769.4,-533.52 c -13.8,-28.58 -21.6,-60.61 -21.6,-94.45"/></g><g transform="scale(1.34247)" id="g160"><path id="path162" style="fill:#2c3a64;fill-opacity:1;fill-rule:nonzero;stroke:none" d="m 15036.1,4683.25 c 600.3,0 1088.6,488.28 1088.6,1088.51 0,600.17 -488.3,1088.45 -1088.6,1088.45 -193.9,0 -384.3,-51.62 -550.5,-149.28 -161.5,-94.9 -296.6,-230.54 -390.9,-392.41 -96.1,-165.29 -147,-354.35 -147,-546.76 0,-600.23 488.3,-1088.51 1088.4,-1088.51 z m 0,2352.31 c 697,0 1263.9,-566.94 1263.9,-1263.8 0,-696.84 -566.9,-1263.86 -1263.9,-1263.86 -696.8,0 -1263.8,567.02 -1263.8,1263.86 0,223.4 59.1,442.92 170.9,634.96 109.4,187.79 266.2,345.26 453.6,455.35 193.1,113.52 414.1,173.49 639.3,173.49"/></g><g transform="scale(1.32926)" id="g164"><path id="path166" style="fill:#b84c42;fill-opacity:1;fill-rule:nonzero;stroke:none" d="m 15175.7,4757.75 c 594.9,0 1078.9,484.02 1078.9,1078.86 0,594.92 -484,1078.87 -1078.9,1078.87 -594.8,0 -1078.8,-483.95 -1078.8,-1078.87 0,-594.84 484,-1078.86 1078.8,-1078.86 z m 0,2203.17 c 620,0 1124.3,-504.34 1124.3,-1124.31 0,-619.89 -504.3,-1124.23 -1124.3,-1124.23 -619.9,0 -1124.2,504.34 -1124.2,1124.23 0,619.97 504.3,1124.31 1124.2,1124.31"/></g><path id="path168" style="fill:#415da5;fill-opacity:1;fill-rule:nonzero;stroke:none" d="m 14821.4,7800.5 1053.9,-2288.1 -135.1,-54.1 c -87.8,-35.1 -187.4,7.7 -222.3,95.6 l -863.1,2175.2 c -18.3,46.3 4,98.6 50,117.4 44.9,18.3 96.3,-1.9 116.6,-46"/><g transform="scale(1.24518)" id="g170"><path id="path172" style="fill:#25436d;fill-opacity:1;fill-rule:nonzero;stroke:none" d="m 14375.7,6228.48 292.6,-915.21 -1439,-921.31 z M 12624.2,4383.05 c 307.3,-797.48 311.2,-803.26 316.9,-811.85 l 118,78.54 c 1.5,-2.33 -48.1,119.74 -112.7,280.2 l 1779.5,1203.2 490.2,-1506.13 135,43.21 -502.9,1545.63 1393.5,942.12 c 58.3,39.35 34.7,130.18 -35.3,136.28 l -1680.1,146.08 -12.2,-141.26 1491.4,-129.7 -1213.6,-776.99 -332.8,1040.89 -135.1,-43.13 38.1,-119.18 -90.6,58.38 -1434.1,-2126.99 c -31.2,78.7 -61.6,156.04 -88,224.63 l -125.2,-43.93"/></g><g transform="scale(1.02679)" id="g174"><path id="path176" style="fill:#415da5;fill-opacity:1;fill-rule:nonzero;stroke:none" d="m 15470.6,4221.6 c 64.2,0 118.6,40.81 139.2,97.87 l 407.2,-23.27 c 23.3,-51.42 74.9,-87.36 135,-87.36 81.8,0 148,66.32 148,148.03 0,81.81 -66.2,148.04 -148,148.04 -38.1,0 -72.7,-14.42 -98.9,-38.08 l -505.1,28.83 c -22.5,13.92 -48.9,22 -77.4,22 -81.7,0 -148,-66.32 -148,-148.03 0,-81.71 66.3,-148.03 148,-148.03"/></g><g transform="scale(1.29583)" id="g178"><path id="path180" style="fill:#b84c42;fill-opacity:1;fill-rule:nonzero;stroke:none" d="m 14248,4487.22 c 15.1,-43.13 62.4,-65.82 105.5,-50.7 l 75.5,26.55 c 59.3,20.84 124.4,16.9 180.6,-11.11 275.2,-137.21 610,-206.59 997.8,-206.59 4.6,0 9.3,0 14,0.08 173.1,0.69 483,43.14 615.6,62.9 36.2,5.4 63,36.42 63,73.08 v 47.84 c 0,13.81 -12.7,24.15 -26.2,21.3 l -0.4,-0.08 c -245.2,-51.47 -1092.8,-190.53 -1705.3,179.58 -17.4,10.49 -38.6,12.73 -57.8,5.94 l -229.6,-80.64 c -27.9,-9.8 -42.5,-40.29 -32.7,-68.15"/></g><g transform="scale(1.20775)" id="g182"><path id="path184" style="fill:#415da5;fill-opacity:1;fill-rule:nonzero;stroke:none" d="m 16273.6,3706.88 c 0,0 26.4,-119.81 -48.7,-127.92 -75.1,-8.12 -349.2,50.75 -422.3,42.64 -73,-8.12 -454.7,-71.05 -521.7,-6.05 -67,64.92 -38.6,121.8 95.5,133.97 134,12.17 312.5,34.53 363.3,77.17 50.8,42.64 418.2,168.49 533.9,-119.81"/></g><g transform="scale(1.12647)" id="g186"><path id="path188" style="fill:#415da5;fill-opacity:1;fill-rule:nonzero;stroke:none" d="m 15087,7342.79 h 144 l 303.3,-138.23 c -11.6,-37.01 -17.8,-76.34 -17.8,-117.18 0,-216.34 175.4,-391.75 391.7,-391.75 216.4,0 391.8,175.41 391.8,391.75 0,216.43 -175.4,391.85 -391.8,391.85 -153.9,0 -287,-88.86 -351.1,-218.12 l -179.2,81.68 h 48.7 c 39.8,0 72.5,32.66 72.5,72.52 0,39.95 -32.7,72.62 -72.5,72.62 H 15087 c -39.9,0 -72.6,-32.67 -72.6,-72.62 0,-39.86 32.7,-72.52 72.6,-72.52"/></g><g transform="scale(1.81162)" id="g190"><path id="path192" style="fill:#2e3552;fill-opacity:1;fill-rule:nonzero;stroke:none" d="M 347.304,2330.18 H 16277 c 12.7,0 23,10.32 23,22.91 v 22.13 c 0,12.59 -10.3,22.91 -23,22.91 H 347.304 c -12.607,0 -22.924,-10.32 -22.924,-22.91 v -22.13 c 0,-12.59 10.317,-22.91 22.924,-22.91"/></g></g></g></svg>